<?xml version="1.0" encoding="utf-8"?>
<!-- Generator: Adobe Illustrator 22.1.0, SVG Export Plug-In . SVG Version: 6.00 Build 0)  -->
<svg version="1.1" id="Ebene_1" xmlns="http://www.w3.org/2000/svg" xmlns:xlink="http://www.w3.org/1999/xlink" x="0px" y="0px"
	 viewBox="0 0 1600 800" style="enable-background:new 0 0 1600 800;" xml:space="preserve">
<g>
	<path d="M882.9,743.8c-204.7,0-409.4,0-614.1,0c-2.6,0-5.2,0.1-7.8-0.1c-6.4-0.6-10.6-4.7-11-10.3c-0.4-5.9,3.7-10.6,10.5-11.6
		c3.1-0.4,6.3-0.3,9.5-0.3c158.7,0,317.5,0,476.2-0.1c251.3-0.1,502.5-0.2,753.8-0.3c3.1,0,6.4,0.3,9.3,1.3
		c4.5,1.5,6.8,5.2,6.8,10.1c0,4.6-2.5,8.3-7.1,9.8c-3,0.9-6.2,1.1-9.4,1.1c-199.5,0.1-399,0.2-598.5,0.3c-6.1,0-12.1,0-18.2,0
		C882.9,743.7,882.9,743.7,882.9,743.8z"/>
	<path d="M1479.6,342.9c-6.4-1.6-12.8-3.2-19.2-5c-24.5-6.8-49-13.3-73.4-20.4c-20.8-6.1-41.3-13-61.9-19.7
		c-10.7-3.5-15.5-11.3-13.9-22.4c0.7-4.4,3.3-7.4,7.4-8.8c5.2-1.8,10.4-3.4,15.8-4.6c37.3-8,73.2-21.2,110-31.1
		c18.4-4.9,36.6-10.7,54.9-15.8c3.3-0.9,6.8-1.7,10.1-1.3c5.2,0.5,8.6,4.5,8.9,9.1c0.3,4.4-2.1,8-7.1,9.7
		c-18.9,6.3-37.8,12.6-56.8,18.5c-21.8,6.8-43.6,13.3-65.5,19.7c-10.2,3-20.7,5.3-31,8c-2.4,0.6-4.8,1.4-9.3,2.7
		c8.3,3,14.7,5.7,21.2,7.6c39.1,11.4,78.2,22.6,117.3,34c8,2.4,15.8,5.5,23.5,8.7c6.6,2.8,9.4,6.7,8.4,11.6
		c-1.3,6.2-2.7,12.2-10.3,14.6c-38.9,12.2-77.6,24.6-116.4,37.1c-12.6,4.1-25,8.5-38.4,13.1c4.6,1.9,8.6,4.1,13,5.3
		c28.9,8.3,57.8,16.3,86.7,24.4c18.6,5.2,37.2,10.4,55.8,15.7c2.2,0.6,4.5,1.3,6.5,2.4c5,2.7,7,7.6,5.1,12.4
		c-1.7,4.4-6.1,6.9-11.3,5.9c-4.2-0.8-8.3-2.3-12.6-3.3c-14.6-3.5-29.2-6.8-43.7-10.6c-19.3-5-38.5-10.3-57.7-15.6
		c-9.2-2.5-18.3-5.3-27.4-8c-15.5-4.6-31-9.1-46.4-14c-7.9-2.5-12.9-12.1-10.9-20.1c1.2-4.7,4.7-7.2,9-8.6c8.5-2.7,17.2-5,25.7-7.7
		c16.8-5.2,33.6-10.6,50.4-15.8c24.3-7.5,48.6-15,72.8-22.5c3.5-1.1,7-2.4,10.5-3.7C1479.6,343.8,1479.6,343.4,1479.6,342.9z"/>
	<path d="M1409.1,527c-16.5,0.1-32,0.5-45.8,9.6c-12.5,8.1-24.8,16.8-30.8,30.9c-12.5,29.3-10.6,55.9,11.6,80.5
		c1.7,1.9,3.7,3.7,5.1,5.9c2.6,3.9,2.3,8.6-0.4,12.1c-2.9,3.8-7.8,5.3-12.4,3.5c-2.1-0.8-4.3-2.1-5.8-3.7
		c-15.1-16.2-26.8-34.4-27.7-57.3c-1-26.2,4-50.9,23.3-70.3c17.4-17.6,37.3-30.5,63.2-32.6c24.1-1.9,47.5,0.9,69.9,9.1
		c22.5,8.2,41.6,22.1,52.5,44.2c21.6,43.5,7,88-36.7,108.5c-15.6,7.4-32,11.8-49.4,10.5c-10.7-0.7-13.8-4-14-14.5
		c-0.7-42.5-1.4-84.9-2.2-127.4C1409.7,533.3,1409.4,530.8,1409.1,527z M1432.3,657.8c17-2,25.8-4.7,38.7-12.7
		c28.4-17.7,35.4-44.1,22.1-74.9c-6-13.9-18.1-22.2-30.4-29.9c-9.1-5.7-19.3-8.7-30.4-9.8C1432.3,573.1,1432.3,615.1,1432.3,657.8z"
		/>
	<path d="M385.2,140.1c1.2,14.5,2.1,28.1,7,40.8c4.4,11.2,13.8,18.6,22.7,25.7c13.5,10.7,29.2,15.7,46.8,15.3
		c13.7-0.3,25.3-5.1,35.8-13.3c4.1-3.2,7.6-7.1,11.8-10.2c5.6-4.1,11.6-3.4,15.5,1.2c3.5,4.3,3.2,10.3-1.1,14.9
		c-14,15.1-30.7,25.4-51.4,28c-5.9,0.7-12.1,0.2-18.1-0.3c-8.3-0.7-17.1-0.5-24.6-3.3c-10.1-3.8-20.2-8.9-28.8-15.5
		c-18.1-13.8-32.1-30.7-34.7-54.8c-1.7-15.8-4.9-31.4-2.8-47.4c4-30.6,18.3-55.7,41.4-75.7c10.3-8.9,22.9-13.9,36.6-13.6
		c12.3,0.3,24.7,2.1,36.9,3.8c3.6,0.5,7.2,2.4,10.3,4.3c25.1,15.3,41.4,36.6,43.7,66.8c0.5,7.2,0.5,14.4-0.1,21.6
		c-0.6,7-4.3,10.1-11.4,10.7c-4,0.3-8.1,0.1-12.1,0.2c-33.5,0.6-67,1.3-100.5,1.7C400.9,141.2,393.7,140.5,385.2,140.1z
		 M512.6,117.2c-1-27.6-14.7-45.3-35.9-58.2c-1.7-1-3.7-1.8-5.7-2c-8.9-1.1-17.8-2.3-26.7-2.7c-10.2-0.5-19.4,3-27.1,9.8
		c-12.6,11.1-21.2,25.1-27.5,40.5c-1.9,4.6-2.4,9.8-3.9,16.3C428.8,119.5,470.3,118.4,512.6,117.2z"/>
	<path d="M916.9,48.2c-4.7,0-7.8,0-10.9,0c-23.1,0.3-46.2,0.7-69.3,0.8c-10.7,0-21.4-0.5-32-0.8c-1.4,0-2.9,0.1-4.3-0.1
		c-4.6-0.7-7.5-3.5-8.2-7.7c-0.7-4.6,1.3-8.8,5.8-10.4c2.9-1,6.2-1.4,9.3-1.4c24.8-0.5,49.7-0.7,74.5-1.2c16.4-0.3,32.9-1,49.3-1.6
		c5.8-0.2,11.4,0.1,14.2,5.9c2.7,5.6,1.9,11.3-1.7,16.4c-16.2,23.2-32.2,46.6-48.9,69.4c-14.1,19.4-29.2,38-43.7,57.1
		c-7.1,9.4-13.9,19.2-20.8,28.8c-1.8,2.5-3.1,5.4-5.2,9c3,0.3,5.1,0.7,7.2,0.7c20.8-0.2,41.6-0.3,62.4-0.7
		c15.9-0.3,31.7-1.1,47.6-1.6c2-0.1,4.1-0.1,6.1,0.2c5,0.9,8.4,4.5,8.9,9.3c0.5,4.9-1.8,9.2-6.5,11.1c-2.4,0.9-5,1.5-7.6,1.6
		c-17.3,0.7-34.6,1.5-51.9,1.6c-21.1,0.1-42.2-0.5-63.2-0.7c-7.5-0.1-15,0-22.5,0.1c-9.3,0.1-13.3-5-10.6-13.8
		c1.6-5.3,3.9-10,7.6-14.4c3.9-4.6,6.3-10.4,9.8-15.3c17.3-23.9,34.6-47.7,52.1-71.4c16.1-21.8,32.5-43.5,48.7-65.2
		C914.2,52.6,915,51.1,916.9,48.2z"/>
	<path d="M1495.3,150.2c0-6.8-0.2-12.6,0-18.4c1-24,2.1-47.9,3.1-71.9c0.2-4.6,0.2-9.2,0.3-13.9c0.1-2.6,0.1-5.2,0.6-7.8
		c1.2-5.8,5-9.2,9.9-9.1c5.2,0.1,9.3,4,9.5,10.4c0.3,10.7,0.2,21.4-0.1,32.1c-0.3,15.9-0.9,31.8-1.3,47.7
		c-0.4,13.9-0.8,27.7-1.1,41.6c-0.1,4,0.2,8.1,0.7,12.1c0.5,4.4-0.6,8-4.5,10.5c-3.9,2.5-7.8,1.8-11.3-0.8c-3.5-2.5-6.7-5.5-10.3-8
		c-17.4-11.9-35.3-23.2-52.4-35.5c-33.4-23.9-66.4-48.3-99.5-72.5c-2.3-1.7-4.6-3.3-7.8-5.6c-0.4,3.2-0.9,5.3-1,7.4
		c-0.1,12.1,0,24.3,0,36.4c-0.1,24.3-0.2,48.5-0.3,72.8c0,2.3,0.1,4.7-0.4,6.9c-1,4.8-4.5,7.9-8.9,8.2c-4.3,0.3-8.3-2.4-9.7-7.1
		c-0.8-2.7-1.1-5.7-1.2-8.5c-0.6-21.7-1.4-43.3-1.7-65c-0.2-19.4,0-38.7,0.2-58.1c0-3.2,0.2-6.4,0.9-9.5c2.4-9.8,9.9-13.9,19.1-9.9
		c6.6,2.9,13.1,6.3,18.9,10.5c27.6,20,54.9,40.5,82.5,60.5c20.4,14.7,41.2,28.8,61.9,43.2C1492.2,149.4,1493.1,149.5,1495.3,150.2z"
		/>
	<path d="M1132.8,204.2c-7.8,5.1-14.3,10.5-21.7,13.9c-12.8,5.8-26,11.2-39.6,14.9c-12.3,3.4-24.7,0.1-36.3-4.9
		c-17.1-7.5-28.5-19.9-33.2-38.5c-2.7-10.7-5-21.3-5.1-32.4c0-6.9-1.3-13.8-1.4-20.7c-0.2-32.1-0.1-64.1-0.1-96.2
		c0-1.7,0.1-3.5,0.6-5.1c1.3-4.3,4.7-7,8.8-7.1c4.2-0.2,7.8,2.1,9.3,6.3c0.8,2.1,1.1,4.5,1.4,6.8c0.3,2.9,0.4,5.8,0.5,8.7
		c0.5,17.3,1.8,34.7,1.2,51.9c-0.7,21.1,1.5,42.1,2.3,63.1c0.4,10.5,4.1,20.3,8.3,29.9c2.7,6.2,8.5,8.5,13.7,11.4
		c9.3,5.4,19.6,7.8,29.9,4.2c11.9-4.3,23.8-9,34.8-15.1c13.3-7.4,22.8-18.9,25.4-34.4c1.1-6.7,0.8-13.8,0.2-20.7
		c-2.8-33.7-3.6-67.5-3.5-101.3c0-7.2,3.1-11.4,8.6-11.9c5.8-0.5,10.4,3.7,11,10.9c0.8,10.4,1,20.8,1.6,31.2
		c1.9,31.7,4.2,63.4,5.7,95.2c0.8,17.3,0.4,34.6,0.4,52c0,7.5-4.3,12.1-10.6,12.3c-6.3,0.2-10.4-4.1-11.2-11.7
		C1133.4,212.8,1133.2,208.8,1132.8,204.2z"/>
	<path d="M163.7,204.4c8.4-28.4,20.5-54.4,30.1-81.2c7.2-20.1,13.6-40.5,20.6-60.7c3.4-9.8,7.2-19.5,11-29.2c2.7-7,7.6-9.8,13.3-7.9
		c5.1,1.7,7.6,6.8,5.6,13.6c-3.6,11.9-8.1,23.5-11.6,35.4c-11.7,39.6-26.3,78.2-40.7,116.9c-4.7,12.7-8.1,25.9-12.3,38.8
		c-2.3,7.3-7,11.7-15.2,11.8c-6.6,0.1-10.3-1.8-12.8-8.1c-6.6-16.3-13.1-32.7-19.2-49.2c-11.2-29.7-22-59.6-33.1-89.3
		C92.8,78,86.1,60.8,79.5,43.5c-0.5-1.3-0.9-2.8-1.2-4.2c-1-5.2,1.1-9.6,5.4-11.5c4.2-1.9,9.1-0.5,12.3,3.7c0.7,0.9,1.3,1.9,1.7,3
		c12.9,31.8,26.1,63.6,38.5,95.6c7.7,19.9,14.2,40.3,21.4,60.4C159.3,195.2,161.6,199.8,163.7,204.4z"/>
	<path d="M597.5,54.4c9.7-6.6,18.1-12.6,26.8-18c9.2-5.7,19.5-8.7,30.1-10.2c2.8-0.4,5.8-0.3,8.6,0.3c5.8,1.3,9.3,5.9,8.9,11.1
		c-0.3,5.3-4.2,9.7-10.1,10.1c-18.8,1.4-34.2,10.1-47.9,22c-10.3,8.9-15.6,19.8-14.4,34.4c1.5,19.2,1.4,38.6,1.5,58
		c0,15-0.9,30-1.2,45c-0.1,3.7,0.5,7.5,0.7,11.2c0.1,2.9,0.4,5.8,0,8.6c-0.9,6.4-5.3,10.2-11,10.1c-5.6-0.1-10.2-4.1-10.6-10.5
		c-0.7-11.8-1.6-23.7-1.1-35.4c1.2-28.9,1.6-57.7-0.2-86.5c-0.5-8.3,0.2-16.7,0.1-25.1c-0.1-11-0.3-21.9-0.4-32.9
		c0-2.3,0.2-4.6,0.6-6.9c1.3-6.1,5.6-9.6,10.9-9c5.1,0.6,9.2,5.2,9.4,10.8C598.2,45.4,597.8,49.4,597.5,54.4z"/>
	<path d="M166.9,775.2c-29.5-0.8-45.5-19.5-46.9-46.1c-1.1-20.6,23.2-43.5,43.1-42.6c19.6,0.9,45.4,17.8,44.7,46.1
		C207.1,756.5,189.5,775.4,166.9,775.2z"/>
	<path d="M291.5,140.9c-0.8-32.8-1.5-60.5-2.2-88.2c-0.1-4.6-0.2-9.3,0.1-13.9c0.5-7.3,4.7-11.7,10.4-11.5c5.4,0.2,9.1,4.4,9.6,11.4
		c0.9,13.8,1.9,27.7,2.1,41.5c0.9,47.9,1.5,95.8,2.1,143.7c0.1,3.7,0.1,7.5-0.5,11.2c-0.8,5.7-5.3,9.5-10.6,9.6
		c-5.4,0-9.6-3.6-10.7-9.4c-0.3-1.4-0.3-2.9-0.3-4.3C291.5,199.3,291.5,167.6,291.5,140.9z"/>
</g>
</svg>
